<?xml version="1.0" encoding="utf-8"?>
<!-- Svg Vector Icons : http://www.onlinewebfonts.com/icon -->
<!DOCTYPE svg PUBLIC "-//W3C//DTD SVG 1.1//EN" "http://www.w3.org/Graphics/SVG/1.1/DTD/svg11.dtd">
<svg version="1.1" xmlns="http://www.w3.org/2000/svg" xmlns:xlink="http://www.w3.org/1999/xlink" x="0px" y="0px" viewBox="0 0 256 256" enable-background="new 0 0 256 256" xml:space="preserve">
<metadata> Svg Vector Icons : http://www.onlinewebfonts.com/icon </metadata>
<g><g><path fill="#ffffff" d="M182.5,35.2c-15.8,0.4-28.6,7.6-41,19.1c-5.6,5-11.8,15.8-14.3,20.9c-3.1-5.9-7-13.5-15.5-22.7C98.5,40.4,85.2,34.2,69.4,34.2C34.2,34.2,10,61.6,10,96.7c0,23.7,7.4,42.5,24.7,62.7c25.1,29.3,86.7,59.3,89.7,60.9c0.6,0.4,2.4,1.5,3,1.5c0.7,0,5-2.8,5.5-3.2c2.7-1.9,63.3-29.9,88.5-59.2c17.3-20.2,24.7-38.9,24.7-62.6C246,61.6,220.9,34.2,182.5,35.2z M216.5,155.3c-22.3,26-78.5,53-89.2,60.7c-10.8-7.7-65.4-34.7-87.7-60.7c-16.2-18.9-23.1-36.4-23.1-58.5c0-31.6,22.9-56.1,54.6-56.1c14.2,0,31.7,11,39.7,21c5.3,4.8,12.4,15.2,15.6,21.6c1.1,2.2,1.7,2,2.8-0.2c3.2-6.4,11.1-18.8,16.5-23.6c10.6-9.6,21.1-18.7,35.3-18.7c31.6,0,58.8,24.3,58.8,56C239.6,118.8,232.7,136.3,216.5,155.3z"/></g></g>
</svg>